<?xml version="1.0" standalone="no"?>
<!DOCTYPE svg PUBLIC "-//W3C//DTD SVG 20010904//EN"
 "http://www.w3.org/TR/2001/REC-SVG-20010904/DTD/svg10.dtd">
<svg version="1.0" xmlns="http://www.w3.org/2000/svg"
 width="660.000000pt" height="535.000000pt" viewBox="0 0 660.000000 535.000000"
 preserveAspectRatio="xMidYMid meet">

<g transform="translate(0.000000,535.000000) scale(0.100000,-0.100000)"
fill="#000000" stroke="none">
<path d="M2622 5234 c-66 -14 -136 -48 -259 -127 -75 -50 -220 -199 -238 -245
-5 -15 -15 -36 -22 -47 -12 -20 -13 -19 -35 6 -13 15 -30 29 -39 32 -15 5 -35
67 -30 95 3 18 -27 26 -53 14 -18 -8 -27 -5 -51 17 -28 25 -30 31 -30 101 0
72 -1 75 -28 88 -16 8 -50 15 -75 16 -26 2 -61 10 -79 19 -41 22 -136 23 -153
2 -7 -8 -20 -15 -29 -15 -10 0 -32 -11 -51 -25 -26 -19 -46 -25 -85 -25 l-52
0 -6 -381 c-6 -332 -9 -385 -23 -407 -14 -22 -16 -49 -12 -209 3 -132 8 -187
17 -192 7 -5 88 -11 179 -14 126 -4 170 -2 180 7 10 10 9 25 -8 78 -11 37 -27
113 -35 170 -26 178 -28 185 -57 208 -37 28 -36 50 0 50 21 0 32 -7 40 -25 17
-36 34 -39 81 -15 33 16 45 18 62 9 16 -8 28 -8 51 2 25 10 34 10 59 -5 17
-10 44 -16 66 -14 l38 3 0 -60 c0 -33 -8 -103 -18 -155 -9 -52 -21 -146 -25
-208 -5 -62 -11 -115 -15 -118 -7 -8 -138 -7 -677 3 -314 6 -469 5 -477 -2 -9
-7 -11 -45 -6 -148 l6 -137 56 0 c31 0 234 -5 451 -11 279 -8 403 -8 422 0 27
10 27 12 30 108 l3 98 53 0 c36 0 56 -5 63 -15 5 -8 8 -52 7 -98 -3 -71 -1
-83 15 -88 23 -7 23 -8 -19 -121 l-35 -98 12 -100 c7 -55 14 -113 15 -130 1
-16 7 -43 13 -60 5 -16 18 -57 29 -90 l19 -60 -86 -95 c-99 -109 -130 -148
-88 -111 33 30 33 29 2 -47 -14 -34 -27 -83 -31 -109 -3 -26 -9 -50 -13 -53
-5 -3 -7 -30 -6 -60 2 -30 -3 -73 -10 -95 -7 -22 -15 -53 -19 -70 -5 -24 -4
-26 4 -13 10 17 12 17 32 -2 13 -11 24 -16 28 -10 3 5 28 -11 55 -36 60 -55
125 -104 137 -104 5 0 1 11 -8 25 l-16 25 45 -20 c59 -26 106 -19 102 16 -1
13 2 24 6 24 5 0 8 3 7 8 -1 4 6 22 16 40 11 22 16 46 13 69 -3 20 0 46 6 57
7 12 13 23 14 25 1 2 16 -7 32 -19 17 -11 35 -19 39 -16 10 6 82 -77 82 -94 0
-6 17 -19 38 -28 45 -20 72 -45 72 -65 0 -21 50 -28 82 -11 22 11 28 12 28 2
1 -14 35 25 79 87 47 69 76 235 52 297 -5 13 -23 39 -40 58 -17 19 -31 40 -31
46 0 13 -59 64 -74 64 -5 0 -6 3 -3 6 4 4 -13 21 -36 38 -25 19 -43 40 -44 54
-2 13 1 21 7 17 12 -7 40 58 40 94 1 29 17 54 42 64 10 3 20 18 24 32 3 14 10
25 14 25 7 0 12 16 27 80 1 8 6 41 9 73 6 49 10 60 29 67 13 5 26 14 30 20 6
9 9 9 15 -1 5 -7 33 -14 64 -17 47 -4 56 -2 56 12 0 9 -6 16 -13 16 -20 0
-147 104 -215 178 -68 73 -116 161 -131 238 -42 219 -48 316 -27 424 24 121
57 223 75 238 41 33 125 53 161 39 22 -9 201 -30 206 -24 2 2 2 11 -2 20 -8
23 -68 40 -144 43 -36 1 -67 3 -70 4 -28 10 -129 -24 -145 -50 -18 -29 -19 -2
-3 63 31 122 68 224 88 242 11 10 31 36 44 59 64 106 175 161 305 149 47 -5
62 -3 57 5 -4 7 -4 17 0 24 10 16 16 52 17 120 2 45 -3 63 -21 87 -15 21 -18
31 -9 31 15 0 60 -74 51 -83 -3 -3 -2 -12 2 -19 13 -20 15 -38 15 -105 0 -53
2 -63 17 -63 15 0 15 -2 2 -10 -13 -8 -13 -10 2 -10 9 0 18 -3 20 -7 6 -14 71
-41 160 -68 83 -25 88 -28 142 -91 64 -75 79 -116 119 -344 37 -207 43 -315
23 -425 -49 -262 -99 -375 -228 -511 l-68 -71 -6 -75 c-5 -57 -3 -87 10 -125
23 -69 43 -84 120 -92 72 -8 101 -26 111 -72 10 -44 25 -25 25 31 0 65 -7 80
-39 80 -25 1 -24 2 9 16 31 14 43 14 113 0 42 -9 91 -16 107 -16 16 0 59 -7
96 -15 36 -9 69 -14 72 -10 3 3 0 5 -8 5 -10 0 -10 3 0 15 10 12 10 19 -2 33
-8 9 -27 45 -42 79 -23 54 -27 78 -31 193 -3 84 -1 129 5 125 6 -3 10 0 10 7
0 7 1 155 1 330 0 336 -4 390 -52 633 -32 161 -36 174 -82 278 l-30 67 -48 0
c-27 0 -49 4 -49 9 0 5 18 8 40 6 22 -3 40 -1 40 3 0 13 -81 127 -103 144 -12
10 -32 18 -44 18 -26 0 -103 31 -103 42 0 9 58 -8 76 -23 8 -7 17 -10 19 -7 9
8 -94 77 -181 121 -108 54 -198 78 -247 67 -45 -10 -57 -18 -58 -38 0 -13 -3
-12 -11 5 -20 42 -114 58 -216 37z m748 -254 c18 -12 2 -12 -25 0 -13 6 -15 9
-5 9 8 0 22 -4 30 -9z m35 -70 c-11 -5 -31 -8 -45 -8 l-25 0 25 8 c14 4 34 8
45 8 l20 1 -20 -9z m-18 -26 c-3 -3 -12 -4 -19 -1 -8 3 -5 6 6 6 11 1 17 -2
13 -5z m-1834 -54 c-6 -22 -43 -28 -43 -7 0 18 10 27 31 27 12 0 16 -6 12 -20z
m1947 -30 c0 -5 -10 -10 -22 -9 -22 0 -22 1 -3 9 11 5 21 9 23 9 1 1 2 -3 2
-9z m-1628 -70 c-4 -34 -23 -51 -50 -44 -16 5 -22 14 -22 33 0 36 6 41 44 38
26 -3 31 -7 28 -27z m-291 -40 c25 -14 24 -28 -2 -51 -20 -17 -49 -16 -49 1 0
15 19 60 25 60 4 0 15 -5 26 -10z m-81 -38 c0 -17 -32 -72 -42 -72 -5 0 -8 3
-6 8 3 4 10 22 17 40 12 29 31 44 31 24z m970 -2077 c11 -13 10 -14 -4 -9 -9
3 -16 10 -16 15 0 13 6 11 20 -6z"/>
<path d="M580 5020 c-8 -5 -51 -10 -95 -10 -66 0 -91 -5 -142 -27 l-62 -28 -1
-62 c0 -34 5 -65 10 -68 6 -3 10 -14 10 -23 0 -9 12 -28 26 -43 38 -40 45
-139 15 -201 -21 -45 -135 -168 -155 -168 -10 0 -24 -14 -128 -134 l-43 -49 0
-172 c0 -151 2 -175 17 -192 10 -11 18 -25 18 -32 0 -37 67 -130 186 -258 52
-56 94 -105 94 -110 0 -5 12 -20 26 -34 37 -34 54 -79 54 -143 l0 -55 -47 -28
c-47 -27 -77 -51 -132 -104 -14 -14 -53 -49 -86 -78 -33 -29 -75 -71 -94 -94
-33 -42 -33 -42 -29 -133 2 -51 9 -98 15 -105 5 -8 13 -34 17 -58 4 -24 13
-53 21 -64 11 -16 15 -52 15 -138 0 -81 5 -128 15 -152 10 -25 15 -71 15 -141
0 -91 -2 -105 -17 -111 -24 -8 -64 -44 -85 -77 -14 -22 -16 -41 -12 -110 4
-49 13 -95 23 -113 10 -16 28 -61 41 -100 13 -38 34 -79 47 -90 17 -16 24 -35
29 -82 6 -58 6 -62 -21 -79 -30 -20 -75 -85 -75 -109 0 -9 -8 -28 -17 -42 -15
-23 -18 -51 -17 -190 1 -157 2 -164 24 -188 20 -21 23 -34 21 -85 -3 -68 13
-81 23 -19 14 85 139 300 408 703 l140 209 -23 41 c-27 49 -43 80 -62 122 -14
30 -13 32 27 75 104 110 386 450 386 464 0 4 -7 -1 -16 -9 -8 -9 -21 -16 -27
-15 -9 0 -8 2 1 6 22 9 13 20 -18 20 -24 0 -27 -3 -19 -14 16 -18 1 -17 -17 2
-17 17 -39 21 -29 5 4 -6 -1 -7 -11 -3 -11 4 -13 8 -6 11 7 2 12 8 12 14 0 5
-9 6 -21 3 -19 -6 -20 -5 -8 8 9 10 18 12 26 5 8 -6 19 -5 34 2 14 8 19 8 15
1 -9 -14 -1 -14 27 0 20 9 20 9 5 -4 -31 -25 -27 -26 59 -18 7 1 40 34 74 73
34 40 85 99 113 132 28 32 52 61 54 65 1 3 -73 6 -165 5 -216 -1 -408 9 -368
18 17 4 150 4 298 1 175 -4 267 -2 267 4 0 7 -60 11 -157 13 -167 2 -243 6
-251 15 -3 3 9 5 26 5 18 0 32 5 32 11 0 6 9 9 20 6 11 -3 20 -1 20 4 0 5 7 9
15 9 25 0 17 17 -12 24 -16 4 -57 9 -93 12 -36 4 -68 9 -73 13 -4 4 -41 6 -83
4 -66 -3 -106 -12 -166 -38 -11 -4 -18 -3 -18 4 0 21 104 61 186 72 57 8 170
9 399 2 287 -9 323 -9 345 6 33 21 54 19 -388 30 -205 4 -375 10 -377 13 -3 3
-6 486 -7 1074 l-3 1069 -22 3 c-13 2 -23 10 -23 18 0 16 -9 18 -30 4z m210
-2339 c0 -5 -7 -12 -16 -15 -14 -5 -15 -4 -4 9 14 17 20 19 20 6z m-431 -83
c-12 -24 -32 -72 -45 -108 -24 -68 -33 -50 -13 25 13 48 56 125 70 125 5 0 0
-19 -12 -42z m266 22 c3 -5 4 -10 1 -10 -2 0 -12 -3 -20 -6 -12 -5 -15 -2 -10
10 7 18 20 21 29 6z m165 -245 c-7 -9 -15 -13 -19 -10 -3 3 1 10 9 15 21 14
24 12 10 -5z m-488 -80 c0 -5 -5 -11 -11 -13 -6 -2 -11 4 -11 13 0 9 5 15 11
13 6 -2 11 -8 11 -13z m123 -6 c12 -18 0 -20 -41 -5 l-39 15 37 0 c20 1 40 -4
43 -10z m55 -9 c0 -5 -2 -10 -4 -10 -3 0 -8 5 -11 10 -3 6 -1 10 4 10 6 0 11
-4 11 -10z m271 -7 c13 -17 13 -17 -6 -3 -11 8 -22 16 -24 17 -2 2 0 3 6 3 6
0 17 -8 24 -17z m-454 -95 c-3 -7 -5 -2 -5 12 0 14 2 19 5 13 2 -7 2 -19 0
-25z m20 -275 c-2 -16 -4 -5 -4 22 0 28 2 40 4 28 2 -13 2 -35 0 -50z m10
-115 c-2 -18 -4 -6 -4 27 0 33 2 48 4 33 2 -15 2 -42 0 -60z"/>
<path d="M3058 4390 c-22 -14 -23 -36 -2 -44 26 -10 204 -7 204 4 0 34 -160
66 -202 40z"/>
<path d="M2492 4305 c-18 -8 -35 -21 -38 -30 -3 -8 -13 -15 -21 -15 -8 0 -13
-7 -11 -17 2 -14 15 -19 54 -21 50 -3 51 -2 47 23 -7 35 14 32 22 -4 5 -25 11
-30 45 -33 35 -3 41 -1 49 23 5 15 7 30 4 33 -4 3 -2 6 4 6 6 0 16 -7 24 -16
10 -12 10 -20 1 -35 -11 -17 -9 -19 23 -19 44 0 45 17 6 59 -15 16 -26 33 -22
36 3 3 -3 3 -13 -1 -12 -5 -17 -4 -13 2 3 6 -7 9 -26 7 -29 -2 -30 -2 -7 6 23
8 24 9 3 10 -12 1 -25 -4 -28 -9 -4 -7 -12 -7 -25 0 -24 13 -38 12 -78 -5z"/>
<path d="M1102 4264 c-28 -20 -31 -83 -4 -107 23 -21 56 -22 72 -2 18 22 4
102 -20 115 -24 13 -21 13 -48 -6z"/>
<path d="M3190 4270 c-8 -5 -28 -10 -43 -10 -36 0 -83 -25 -97 -49 -14 -28
-13 -31 15 -31 17 0 23 4 19 15 -3 8 -2 20 2 27 6 9 10 5 14 -12 5 -22 12 -25
53 -28 47 -3 47 -3 47 28 0 36 19 37 35 3 5 -12 18 -24 30 -26 11 -3 29 -8 41
-12 16 -5 21 -2 21 12 1 24 -35 63 -74 79 -38 16 -43 17 -63 4z"/>
<path d="M740 4047 c0 -68 4 -107 10 -107 10 0 4 198 -6 209 -2 2 -4 -44 -4
-102z"/>
<path d="M2773 3893 c-23 -9 -14 -23 15 -23 15 0 38 -7 50 -16 31 -21 28 -8
-5 21 -28 25 -38 28 -60 18z"/>
<path d="M2943 3867 c-34 -23 -44 -44 -17 -33 9 3 36 6 60 6 l44 0 -16 25
c-19 30 -29 30 -71 2z"/>
<path d="M2878 3833 c7 -3 16 -2 19 1 4 3 -2 6 -13 5 -11 0 -14 -3 -6 -6z"/>
<path d="M2596 3702 c-12 -11 -5 -20 35 -46 22 -15 59 -29 82 -32 l42 -5 -34
19 c-40 21 -51 42 -24 42 15 1 15 2 3 9 -19 11 -97 21 -104 13z"/>
<path d="M3065 3680 c-16 -4 -26 -8 -21 -9 5 0 1 -10 -9 -21 -19 -21 -16 -23
25 -20 28 2 72 38 64 51 -6 10 -16 10 -59 -1z"/>
<path d="M2778 3613 c7 -3 16 -2 19 1 4 3 -2 6 -13 5 -11 0 -14 -3 -6 -6z"/>
<path d="M4287 3594 c-4 -5 -88 -8 -185 -9 l-177 0 0 -102 c0 -117 6 -128 68
-126 23 1 155 4 292 7 138 2 260 5 273 5 20 1 22 6 22 56 0 37 7 70 20 96 l21
40 332 -5 c183 -3 399 -9 480 -12 142 -6 149 -5 145 12 -4 21 27 20 -828 28
-184 1 -362 6 -395 10 -33 4 -64 4 -68 0z"/>
<path d="M3831 3204 c0 -11 3 -14 6 -6 3 7 2 16 -1 19 -3 4 -6 -2 -5 -13z"/>
<path d="M5152 2934 c-12 -8 -22 -22 -22 -30 0 -8 -6 -25 -14 -37 -7 -12 -16
-34 -20 -49 -5 -24 -2 -28 32 -39 20 -6 40 -16 43 -22 12 -17 29 3 29 34 0 42
34 37 37 -6 1 -17 4 -41 5 -54 2 -19 -4 -26 -35 -37 -33 -12 -42 -11 -61 2
-13 8 -49 15 -80 16 -52 1 -56 3 -56 26 0 18 -4 23 -16 18 -9 -3 -18 -6 -21
-6 -3 0 0 -6 6 -14 9 -11 9 -20 2 -34 -12 -22 -6 -32 19 -32 9 0 22 -10 29
-23 11 -20 9 -31 -11 -73 -27 -57 -50 -66 -74 -29 -16 24 -16 27 1 45 9 10 14
23 11 29 -8 12 -187 10 -183 -3 2 -5 12 -11 23 -12 92 -13 108 -31 54 -59 -23
-12 -35 -13 -51 -5 -19 11 -20 9 -17 -42 3 -49 5 -53 26 -50 21 3 22 1 12 -17
-6 -12 -19 -21 -29 -21 -26 0 -48 -27 -33 -42 9 -9 18 -8 38 2 23 13 27 12 35
-3 6 -9 18 -17 27 -17 20 0 46 -36 37 -50 -10 -16 -67 -11 -80 7 -11 15 -13
15 -24 -4 -9 -18 -5 -35 22 -100 19 -43 42 -112 52 -153 10 -41 22 -93 28
-115 18 -72 17 -75 -35 -101 -26 -13 -48 -29 -48 -34 0 -6 24 -10 53 -10 28 0
82 -3 120 -7 l67 -6 -6 34 c-3 19 -15 65 -26 102 -17 61 -40 242 -39 307 1 28
50 76 90 88 44 12 313 7 338 -6 25 -14 24 2 8 -216 -3 -43 -12 -106 -21 -140
-24 -92 -33 -165 -20 -175 20 -16 135 -19 148 -3 15 17 19 204 6 250 -5 21
-18 36 -33 42 -34 13 -33 35 6 193 7 25 15 37 27 37 18 0 52 33 52 50 0 6 -4
10 -10 10 -19 0 -31 38 -18 59 10 16 9 23 -5 39 -16 18 -16 20 3 37 11 10 20
24 20 32 0 7 5 13 10 13 19 0 10 17 -15 28 -34 16 -33 16 -37 -15 -5 -44 -40
-43 -67 3 -23 38 -21 71 5 76 11 2 17 17 19 51 2 40 1 46 -11 36 -8 -7 -12
-20 -9 -29 4 -13 -4 -25 -25 -40 -28 -20 -30 -20 -37 -3 -3 10 -14 27 -24 38
-13 15 -16 30 -12 62 l5 42 52 -6 c28 -3 58 -12 66 -19 13 -11 21 -10 49 7 22
13 31 25 27 35 -3 9 -6 20 -6 26 0 6 -10 8 -25 4 -23 -6 -25 -3 -25 25 0 29
-2 31 -27 24 -16 -4 -54 -9 -85 -12 l-57 -5 -3 -51 c-2 -28 -8 -52 -14 -54 -6
-2 -19 15 -29 37 -10 22 -24 45 -32 51 -7 6 -13 22 -13 35 0 28 -20 31 -55 8
-27 -18 -33 -7 -14 28 15 28 -2 41 -29 22z m136 -277 c12 -13 18 -27 14 -35
-11 -16 -63 -25 -81 -13 -11 7 -10 14 8 40 27 37 31 38 59 8z m-122 2 c3 -6 1
-16 -5 -22 -6 -6 -11 -19 -11 -30 0 -17 -5 -18 -42 -12 -56 9 -65 18 -44 49
13 21 25 26 56 26 21 0 42 -5 46 -11z m243 -68 c8 -5 11 -16 8 -25 -13 -32
-111 -11 -100 22 5 14 71 16 92 3z m-369 -126 c0 -9 8 -19 18 -22 9 -4 27 -17
40 -31 22 -23 22 -25 7 -49 -22 -32 -37 -37 -80 -23 -28 9 -37 19 -42 41 -4
19 -12 29 -24 29 -44 0 -27 56 18 63 54 8 63 7 63 -8z m-151 -24 c27 -37 27
-61 1 -61 -20 0 -50 45 -50 75 0 25 27 17 49 -14z m571 -10 c14 -27 13 -31 -9
-31 -23 0 -35 15 -27 35 8 21 23 19 36 -4z m-74 -28 c-10 -10 -19 5 -10 18 6
11 8 11 12 0 2 -7 1 -15 -2 -18z m-200 -42 c-4 -6 -14 -11 -22 -11 -12 0 -13
4 -3 21 7 14 14 18 21 11 6 -6 7 -15 4 -21z m304 -16 c0 -8 -7 -15 -15 -15 -8
0 -15 7 -15 15 0 8 7 15 15 15 8 0 15 -7 15 -15z"/>
<path d="M4846 2722 c-13 -13 -4 -22 21 -22 21 0 24 -3 15 -12 -14 -14 -16
-28 -2 -28 8 0 40 50 40 63 0 6 -68 5 -74 -1z"/>
<path d="M5582 2668 c-14 -14 -16 -28 -3 -28 5 0 11 9 14 20 6 23 5 24 -11 8z"/>
<path d="M850 2350 c0 -5 5 -10 10 -10 6 0 10 5 10 10 0 6 -4 10 -10 10 -5 0
-10 -4 -10 -10z"/>
<path d="M5815 2249 c-98 -20 -77 -31 80 -44 120 -10 201 -23 425 -71 63 -14
2 10 -106 40 -66 19 -145 43 -177 55 -71 25 -157 33 -222 20z"/>
<path d="M4660 2196 c0 -19 -5 -36 -12 -38 -7 -3 -6 -7 5 -11 14 -5 17 0 17
38 0 25 -2 45 -5 45 -3 0 -5 -15 -5 -34z"/>
<path d="M4642 2120 c0 -14 2 -19 5 -12 2 6 2 18 0 25 -3 6 -5 1 -5 -13z"/>
<path d="M5598 1983 c4 -109 12 -137 34 -115 8 8 8 15 -1 26 -7 8 -11 25 -9
38 3 22 6 23 86 21 45 -1 82 0 82 3 0 2 -17 12 -38 23 -21 11 -61 40 -89 65
-28 25 -55 46 -59 46 -5 0 -8 -48 -6 -107z"/>
<path d="M5736 2061 c-9 -14 15 -29 59 -36 22 -4 60 -16 85 -25 50 -19 310
-35 345 -21 l20 8 -20 6 c-11 4 -54 11 -95 17 -41 6 -91 15 -110 20 -27 7
-253 40 -275 40 -2 0 -6 -4 -9 -9z"/>
<path d="M6160 1930 c0 -8 71 -16 243 -26 124 -8 152 9 33 21 -113 10 -276 13
-276 5z"/>
<path d="M5607 1804 c-8 -8 1 -24 14 -24 5 0 9 7 9 15 0 15 -12 20 -23 9z"/>
<path d="M4520 1735 c-5 -6 -5 -17 0 -25 6 -8 10 -10 10 -4 0 8 25 7 87 -2 79
-12 104 -11 171 2 44 9 10 24 -56 25 -37 0 -98 3 -135 8 -45 5 -71 4 -77 -4z"/>
<path d="M5589 1733 c-1 -10 -2 -25 -3 -33 -1 -10 -16 -17 -41 -21 -43 -6 -37
-10 36 -27 45 -11 89 -7 89 8 0 4 -7 11 -15 14 -9 3 -23 22 -31 41 -15 37 -33
46 -35 18z"/>
<path d="M4880 1694 c0 -15 9 -16 61 -10 34 3 71 7 83 7 30 2 -61 17 -106 18
-29 1 -38 -3 -38 -15z"/>
<path d="M5168 1703 c-27 -2 -48 -8 -48 -14 0 -11 -22 -9 170 -15 156 -4 163
-3 120 11 -49 16 -168 25 -242 18z"/>
<path d="M4544 1627 c3 -16 25 -75 49 -131 l43 -101 80 2 80 2 19 -74 c10 -41
18 -91 18 -110 0 -25 5 -35 16 -35 14 -1 13 -2 -1 -11 -28 -16 -21 -26 22 -33
48 -7 74 -41 64 -80 -5 -21 -3 -26 13 -26 22 0 43 -18 43 -36 0 -7 -22 -39
-49 -71 l-49 -58 14 -65 c18 -84 17 -140 -1 -219 -9 -35 -13 -72 -10 -81 3
-10 -4 -41 -15 -69 -11 -29 -20 -56 -20 -61 0 -6 73 -9 188 -9 103 1 174 4
157 6 -36 6 -47 20 -40 53 2 14 7 83 10 154 5 128 14 181 16 95 0 -24 3 -38 6
-31 2 7 22 12 45 12 30 0 39 -3 35 -14 -4 -9 0 -12 13 -9 21 6 30 -1 106 -75
30 -28 54 -59 54 -67 0 -8 6 -15 14 -15 28 0 35 -83 9 -100 -14 -8 -9 -10 25
-8 43 2 54 11 27 22 -11 4 -15 20 -15 58 0 29 4 48 8 41 4 -6 8 120 10 280 1
161 6 400 11 531 9 224 6 276 -17 290 -5 3 -139 14 -298 26 -159 11 -329 25
-379 31 -49 6 -139 12 -198 13 l-109 3 6 -30z"/>
<path d="M1480 1555 c-19 -14 -46 -47 -60 -73 -29 -55 -125 -198 -139 -206 -5
-4 -19 7 -31 24 -21 30 -44 41 -35 18 3 -7 -3 -25 -12 -39 -147 -222 -237
-347 -246 -342 -5 3 -7 1 -4 -4 8 -13 100 -42 267 -83 106 -26 150 -32 290
-36 91 -2 182 -6 204 -9 l39 -3 -7 71 c-19 218 -48 323 -143 512 -30 60 -58
119 -63 130 -4 11 -12 30 -16 43 l-9 23 -35 -26z m75 -445 c3 -6 -1 -7 -9 -4
-18 7 -21 14 -7 14 6 0 13 -4 16 -10z m-20 -20 c3 -6 -1 -7 -9 -4 -18 7 -21
14 -7 14 6 0 13 -4 16 -10z m60 -10 c3 -6 -1 -7 -9 -4 -18 7 -21 14 -7 14 6 0
13 -4 16 -10z m-20 -20 c3 -6 -1 -7 -9 -4 -18 7 -21 14 -7 14 6 0 13 -4 16
-10z m-10 -28 c-3 -3 -11 0 -18 7 -9 10 -8 11 6 5 10 -3 15 -9 12 -12z"/>
<path d="M5707 1573 c-2 -5 -5 -215 -6 -467 -1 -253 -7 -483 -12 -510 -5 -28
-9 -94 -7 -147 l2 -96 164 -7 c90 -4 167 -4 170 -1 3 3 0 31 -8 63 -17 65 -17
204 -1 245 6 15 23 33 38 39 16 7 34 20 40 29 7 9 24 20 38 23 14 4 38 20 54
36 15 17 32 30 37 30 22 0 90 99 126 182 31 73 38 100 38 155 0 69 -28 149
-56 160 -8 3 -14 14 -14 24 0 14 -7 19 -28 19 -44 0 -59 26 -67 112 -8 87 -9
88 -110 88 -33 0 -87 4 -120 9 -90 14 -273 23 -278 14z"/>
<path d="M3993 1472 c-42 -16 -62 -45 -25 -35 15 3 25 -9 47 -59 71 -159 118
-252 122 -242 2 6 -7 33 -19 60 -12 27 -21 55 -20 62 2 6 -2 12 -8 12 -5 0
-10 8 -10 18 0 9 -11 53 -24 97 -16 55 -20 84 -14 93 13 15 3 14 -49 -6z"/>
<path d="M5597 1103 c-4 -3 -7 -13 -7 -22 1 -13 3 -13 11 2 11 19 8 33 -4 20z"/>
<path d="M2642 983 l-22 -24 41 3 c36 3 43 7 44 26 2 30 -33 28 -63 -5z"/>
<path d="M4367 784 c-23 -13 -26 -18 -16 -35 l11 -21 21 21 c12 11 38 27 57
35 l35 15 -40 0 c-22 0 -52 -7 -68 -15z"/>
<path d="M4532 745 c52 -44 150 -86 165 -71 11 10 -30 39 -113 81 -99 49 -118
45 -52 -10z"/>
<path d="M2336 648 c-19 -40 -53 -102 -75 -138 -22 -36 -52 -87 -67 -115 -25
-48 -25 -49 -2 -25 35 39 63 80 93 140 15 30 35 66 45 80 22 32 55 119 47 126
-3 3 -21 -27 -41 -68z"/>
<path d="M4355 682 c3 -23 1 -32 -8 -31 -6 1 -34 -1 -61 -6 -30 -5 -55 -4 -65
2 -11 7 -32 6 -66 -3 -28 -7 -59 -13 -70 -13 -19 0 -19 1 -1 8 11 4 15 10 10
14 -13 7 -168 -23 -172 -34 -2 -5 -12 -4 -23 2 -25 13 -62 2 -55 -17 7 -19 -8
-18 -25 2 -8 10 -23 14 -43 11 -16 -2 -47 0 -69 5 -26 6 -44 5 -52 -2 -7 -6
-39 -13 -71 -16 -32 -2 -65 -11 -74 -19 -9 -8 -27 -15 -39 -15 -37 0 -111 -22
-111 -32 0 -7 -4 -7 -12 0 -8 6 -29 7 -58 2 -48 -9 -64 -5 -40 11 11 6 5 9
-20 8 -19 0 -44 1 -55 3 -11 1 -20 -2 -20 -9 0 -15 -15 -30 -15 -15 0 7 -4 12
-10 12 -5 0 -10 -7 -10 -16 0 -13 -7 -15 -28 -11 -19 4 -39 -1 -59 -12 -16
-10 -48 -19 -72 -19 -23 0 -75 -6 -115 -12 -41 -6 -85 -10 -98 -9 -60 5 -107
-1 -102 -14 6 -16 -70 -51 -104 -47 -13 1 -30 -4 -37 -10 -8 -7 -26 -10 -39
-8 -15 3 -23 1 -20 -6 3 -7 -17 -12 -57 -12 -41 -1 -64 -7 -72 -17 -7 -9 -28
-17 -47 -19 -37 -3 -70 -24 -70 -45 0 -7 -6 -13 -14 -13 -8 0 -17 -7 -20 -16
-3 -8 -10 -13 -15 -10 -5 3 -20 -9 -34 -27 -14 -17 -42 -50 -61 -72 -44 -49
-43 -68 8 -76 37 -6 300 3 461 16 l81 7 38 -46 c20 -25 42 -46 49 -46 6 0 -6
17 -26 38 -20 21 -37 40 -37 44 0 8 177 15 938 39 l653 20 33 -21 c29 -18 46
-38 46 -56 0 -3 -10 -2 -22 2 -62 19 -188 -10 -160 -38 30 -30 233 -46 312
-24 103 28 103 28 88 37 -7 5 -24 8 -38 8 -14 0 -19 -3 -12 -6 6 -2 12 -9 12
-15 0 -18 -81 14 -112 44 -10 10 -22 18 -27 18 -10 0 -55 90 -48 96 5 5 117
-40 182 -72 l50 -25 -46 43 c-35 33 -64 48 -120 66 -41 12 -80 22 -86 22 -19
0 -15 18 5 23 13 4 11 5 -5 6 -13 0 -23 -4 -23 -9 0 -6 -10 -4 -22 4 -37 23
-198 90 -203 84 -10 -10 7 -37 19 -32 7 3 24 -4 37 -15 l24 -20 -28 -1 c-32 0
-144 62 -165 91 -7 10 -19 19 -27 19 -20 0 -45 28 -45 51 0 25 58 61 85 53 11
-3 31 -14 45 -23 14 -10 43 -22 65 -26 22 -5 42 -9 45 -10 3 0 28 -8 55 -17
28 -10 68 -20 90 -24 22 -4 95 -29 163 -56 67 -27 137 -51 155 -54 l32 -5 -24
17 c-28 21 -183 92 -226 104 -16 5 -59 19 -95 33 -36 13 -107 35 -158 48 -53
13 -97 31 -102 39 -21 41 48 104 104 93 17 -3 54 -14 81 -24 28 -11 61 -19 75
-19 38 0 147 -34 241 -74 57 -25 105 -39 149 -42 60 -5 64 -4 46 10 -11 9 -26
16 -34 16 -7 0 -39 24 -70 53 -31 30 -87 75 -123 100 -36 26 -71 57 -78 69
-11 21 -11 21 -6 -10z m-1448 -228 c-3 -3 -12 -4 -19 -1 -8 3 -5 6 6 6 11 1
17 -2 13 -5z m1285 -205 c71 -33 85 -49 43 -49 -14 0 -25 -4 -25 -10 0 -5 -5
-10 -11 -10 -5 0 -7 5 -4 10 3 6 -1 10 -9 10 -9 0 -16 4 -16 10 0 5 -6 7 -13
4 -7 -2 -26 5 -41 17 -21 17 -24 24 -15 35 15 18 12 19 91 -17z m63 -69 c3 -5
-1 -10 -9 -10 -9 0 -16 5 -16 10 0 6 4 10 9 10 6 0 13 -4 16 -10z"/>
<path d="M5586 676 c-4 -19 -6 -85 -5 -148 0 -62 -4 -126 -10 -141 -15 -38
-15 -37 18 -37 l28 0 -3 171 c-3 166 -14 230 -28 155z"/>
<path d="M49 655 c-1 -5 0 -34 1 -64 1 -37 -1 -51 -9 -47 -6 4 -11 2 -11 -3 0
-6 4 -11 8 -11 8 0 21 -42 42 -130 l11 -45 317 -2 c263 -2 325 -5 369 -19 49
-16 55 -16 71 0 23 20 31 20 52 1 13 -12 23 -13 44 -5 15 5 44 11 64 11 31 2
29 3 -18 10 -30 4 -72 11 -93 15 -29 5 -43 2 -57 -11 -10 -9 -24 -14 -31 -9
-7 4 -94 10 -195 13 -150 5 -185 9 -196 22 -22 26 -156 67 -200 60 -11 -1 -30
15 -50 43 -17 25 -35 46 -40 46 -4 0 -8 6 -8 14 0 7 -6 19 -14 25 -11 10 -17
8 -25 -6 -9 -15 -11 -11 -11 22 -1 38 -16 91 -21 70z"/>
<path d="M3260 580 c6 -11 13 -20 15 -20 3 0 5 9 5 20 0 11 -7 20 -15 20 -13
0 -14 -4 -5 -20z"/>
<path d="M1185 336 c50 -8 141 -17 203 -21 102 -7 112 -6 106 9 -5 14 -24 16
-124 16 -64 0 -153 2 -196 5 l-79 4 90 -13z"/>
<path d="M4293 280 c29 -23 47 -26 47 -6 0 15 -21 26 -52 26 -19 0 -19 -1 5
-20z"/>
<path d="M890 240 c-8 -5 -11 -12 -7 -16 3 -4 13 -2 20 5 8 6 23 8 32 4 13 -4
16 -3 11 5 -9 14 -35 15 -56 2z"/>
<path d="M490 35 c0 -28 38 -36 157 -33 l118 3 -69 23 c-82 27 -206 31 -206 7z"/>
</g>
</svg>
